<mxfile host="app.diagrams.net" modified="2023-12-11T09:13:58.834Z" agent="Mozilla/5.0 (Windows NT 10.0; Win64; x64) AppleWebKit/537.36 (KHTML, like Gecko) Chrome/119.0.0.0 Safari/537.36" version="21.6.6" etag="6incoX4ScAc0xvo4R4ua" type="github">
  <diagram name="第 1 页" id="MSrMsUn2oJwosFCmGW4Z">
    <mxGraphModel>
      <root>
        <mxCell id="0" />
        <mxCell id="1" parent="0" />
      </root>
    </mxGraphModel>
  </diagram>
</mxfile>
